<svg width="10" height="7" viewBox="0 0 10 7" fill="none" xmlns="http://www.w3.org/2000/svg">
<path d="M1.53033 1.46967C1.23744 1.17678 0.762563 1.17678 0.46967 1.46967C0.176777 1.76256 0.176777 2.23744 0.46967 2.53033L1.53033 1.46967ZM5 6L4.46967 6.53033C4.76256 6.82322 5.23744 6.82322 5.53033 6.53033L5 6ZM9.53033 2.53033C9.82322 2.23744 9.82322 1.76256 9.53033 1.46967C9.23744 1.17678 8.76256 1.17678 8.46967 1.46967L9.53033 2.53033ZM0.46967 2.53033L4.46967 6.53033L5.53033 5.46967L1.53033 1.46967L0.46967 2.53033ZM5.53033 6.53033L9.53033 2.53033L8.46967 1.46967L4.46967 5.46967L5.53033 6.53033Z" fill="#FE7E01"/>
</svg>
