<svg width="56" height="56" viewBox="0 0 56 56" fill="none" xmlns="http://www.w3.org/2000/svg">
<path d="M49.0087 22.1641V15.1612C49.0087 11.9382 46.3959 9.32544 43.1729 9.32544H12.827C9.60397 9.32544 6.99121 11.9382 6.99121 15.1612V23.3313" stroke="#FF8F28" stroke-width="1.5" stroke-linecap="round" stroke-linejoin="round"/>
<path d="M49.0089 33.8357V40.8386C49.0089 44.0616 46.3962 46.6744 43.1732 46.6744H30.3345" stroke="#FF8F28" stroke-width="1.5" stroke-linecap="round" stroke-linejoin="round"/>
<path fill-rule="evenodd" clip-rule="evenodd" d="M43.1732 22.1641H49.0089C50.2981 22.1641 51.3432 23.2092 51.3432 24.4984V31.5013C51.3432 32.7905 50.2981 33.8356 49.0089 33.8356H43.1732C39.9502 33.8356 37.3374 31.2228 37.3374 27.9998V27.9998C37.3374 24.7768 39.9502 22.1641 43.1732 22.1641V22.1641Z" stroke="#FF8F28" stroke-width="1.5" stroke-linecap="round" stroke-linejoin="round"/>
<ellipse cx="15.1611" cy="38.5044" rx="10.5044" ry="10.5044" stroke="#FF8F28" stroke-width="1.5" stroke-linecap="round" stroke-linejoin="round"/>
<path d="M18.6936 36.4246L14.2817 40.8338L11.6294 38.1893" stroke="#FF8F28" stroke-width="1.5" stroke-linecap="round" stroke-linejoin="round"/>
</svg>
