<svg width="25" height="24" viewBox="0 0 25 24" fill="none" xmlns="http://www.w3.org/2000/svg">
<path fill-rule="evenodd" clip-rule="evenodd" d="M17.5 7V7C20.2614 9.76142 20.2614 14.2386 17.5 17L13.6782 20.8217C13.0275 21.4725 11.9725 21.4725 11.3218 20.8217L7.5 17C4.73858 14.2386 4.73858 9.76142 7.5 7V7C10.2614 4.23858 14.7386 4.23858 17.5 7Z" stroke="#0074D9" stroke-width="1.5" stroke-linecap="round" stroke-linejoin="round"/>
<path fill-rule="evenodd" clip-rule="evenodd" d="M17.5 7V7C20.2614 9.76142 20.2614 14.2386 17.5 17L13.6782 20.8217C13.0275 21.4725 11.9725 21.4725 11.3218 20.8217L7.5 17C4.73858 14.2386 4.73858 9.76142 7.5 7V7C10.2614 4.23858 14.7386 4.23858 17.5 7Z" stroke="#0074D9" stroke-width="1.5" stroke-linecap="round" stroke-linejoin="round"/>
<circle cx="12.5004" cy="12.0004" r="2.42619" stroke="#0074D9" stroke-width="1.5" stroke-linecap="round" stroke-linejoin="round"/>
</svg>
