<svg width="25" height="24" viewBox="0 0 25 24" fill="none" xmlns="http://www.w3.org/2000/svg">
<path fill-rule="evenodd" clip-rule="evenodd" d="M19.465 16.61L18.292 15.437C17.706 14.851 16.756 14.851 16.171 15.437L15.249 16.359C15.043 16.565 14.731 16.634 14.465 16.517C13.129 15.932 11.809 15.045 10.632 13.868C9.46002 12.696 8.57602 11.382 7.99002 10.051C7.86802 9.77597 7.93902 9.45297 8.15202 9.23997L8.97802 8.41397C9.64902 7.74297 9.64902 6.79397 9.06302 6.20797L7.89002 5.03497C7.10902 4.25397 5.84302 4.25397 5.06202 5.03497L4.41002 5.68597C3.66902 6.42697 3.36002 7.49597 3.56002 8.55597C4.05402 11.169 5.57202 14.03 8.02102 16.479C10.47 18.928 13.331 20.446 15.944 20.94C17.004 21.14 18.073 20.831 18.814 20.09L19.465 19.439C20.246 18.658 20.246 17.392 19.465 16.61V16.61Z" stroke="#0074D9" stroke-width="1.5" stroke-linecap="round" stroke-linejoin="round"/>
<path d="M13.5 6.99109C14.531 6.97709 15.567 7.35909 16.354 8.14609" stroke="#0074D9" stroke-width="1.5" stroke-linecap="round" stroke-linejoin="round"/>
<path d="M19.182 5.31787C17.613 3.74887 15.556 2.96387 13.5 2.96387" stroke="#0074D9" stroke-width="1.5" stroke-linecap="round" stroke-linejoin="round"/>
<path d="M17.509 11C17.523 9.969 17.141 8.933 16.354 8.146" stroke="#0074D9" stroke-width="1.5" stroke-linecap="round" stroke-linejoin="round"/>
<path d="M19.1821 5.31787C20.7511 6.88687 21.5361 8.94387 21.5361 10.9999" stroke="#0074D9" stroke-width="1.5" stroke-linecap="round" stroke-linejoin="round"/>
</svg>
