<svg width="56" height="56" viewBox="0 0 56 56" fill="none" xmlns="http://www.w3.org/2000/svg">
<path d="M23.3333 41.9999H14C10.134 41.9999 7 38.8659 7 34.9999V16.3333C7 12.4673 10.134 9.33325 14 9.33325H42C45.866 9.33325 49 12.4673 49 16.3333V25.6666" stroke="#FF8F28" stroke-width="1.5" stroke-linecap="round" stroke-linejoin="round"/>
<path d="M14 34.9999H16.3333" stroke="#FF8F28" stroke-width="1.5" stroke-linecap="round" stroke-linejoin="round"/>
<path d="M39.6665 16.3334H41.9998" stroke="#FF8F28" stroke-width="1.5" stroke-linecap="round" stroke-linejoin="round"/>
<path d="M23.8751 29.7914C21.597 27.5133 21.597 23.8199 23.8751 21.5418C26.1531 19.2637 29.8466 19.2637 32.1246 21.5418" stroke="#FF8F28" stroke-width="1.5" stroke-linecap="round" stroke-linejoin="round"/>
<path fill-rule="evenodd" clip-rule="evenodd" d="M32.6665 40.8213C32.6665 44.7494 37.6094 47.657 39.8082 48.7566C40.4535 49.0814 41.2146 49.0811 41.8597 48.7558C44.0592 47.6556 48.9998 44.7547 48.9998 40.8213V35.2283C48.9811 34.6179 48.5047 34.1202 47.8958 34.0746C45.8279 33.8848 43.8487 33.1447 42.1637 31.9311C41.3698 31.3563 40.2966 31.3563 39.5028 31.9311C37.8178 33.1447 35.8385 33.8848 33.7707 34.0746C33.1618 34.1202 32.6854 34.6179 32.6666 35.2283L32.6665 40.8213Z" stroke="#FF8F28" stroke-width="1.5" stroke-linecap="round" stroke-linejoin="round"/>
</svg>
