<svg width="24" height="24" viewBox="0 0 24 24" fill="none" xmlns="http://www.w3.org/2000/svg">
<path fill-rule="evenodd" clip-rule="evenodd" d="M10.048 13.869C8.87804 12.699 7.99604 11.389 7.41004 10.06C7.28604 9.77897 7.35904 9.44997 7.57604 9.23297L8.39504 8.41397C9.06604 7.74297 9.06604 6.79397 8.48004 6.20797L7.30604 5.03497C6.52504 4.25397 5.25904 4.25397 4.47804 5.03497L3.82604 5.68597C3.08504 6.42697 2.77604 7.49597 2.97604 8.55597C3.47004 11.169 4.98804 14.03 7.43704 16.479C9.88604 18.928 12.747 20.446 15.36 20.94C16.42 21.14 17.489 20.831 18.23 20.09L18.881 19.439C19.662 18.658 19.662 17.392 18.881 16.611L17.708 15.438C17.122 14.852 16.172 14.852 15.587 15.438L14.684 16.342C14.467 16.559 14.138 16.632 13.857 16.508C12.528 15.921 11.218 15.038 10.048 13.869Z" stroke="#A0B4CB" stroke-width="1.5" stroke-linecap="round" stroke-linejoin="round"/>
<path d="M12.9199 5.17008V2.83008" stroke="#A0B4CB" stroke-width="1.5" stroke-linecap="round" stroke-linejoin="round"/>
<path d="M17.0898 6.82018L18.7398 5.18018" stroke="#A0B4CB" stroke-width="1.5" stroke-linecap="round" stroke-linejoin="round"/>
<path d="M18.75 11H21.08" stroke="#A0B4CB" stroke-width="1.5" stroke-linecap="round" stroke-linejoin="round"/>
</svg>
