<svg width="56" height="56" viewBox="0 0 56 56" fill="none" xmlns="http://www.w3.org/2000/svg">
<path d="M44.3335 36.1666V26.8333C44.3335 24.9003 45.9005 23.3333 47.8335 23.3333C49.7665 23.3333 51.3335 24.9003 51.3335 26.8333V42.13C51.3335 43.5789 50.9961 45.0079 50.3481 46.3038L49.0002 48.9999" stroke="#FF8F28" stroke-width="1.5" stroke-linecap="round" stroke-linejoin="round"/>
<path d="M32.6665 49V42.2022C32.6665 41.1925 32.994 40.21 33.5998 39.4022L37.515 34.1819C38.1739 33.3034 39.1815 32.7541 40.2768 32.6763C41.3721 32.5984 42.4472 32.9997 43.2237 33.7762V33.7762C44.5566 35.1091 44.7066 37.2193 43.5755 38.7273L41.121 42" stroke="#FF8F28" stroke-width="1.5" stroke-linecap="round" stroke-linejoin="round"/>
<path d="M11.6665 36.1666V26.8333C11.6665 24.9003 10.0995 23.3333 8.1665 23.3333C6.23351 23.3333 4.6665 24.9003 4.6665 26.8333V42.13C4.66651 43.5789 5.00388 45.0079 5.65187 46.3038L6.99984 48.9999" stroke="#FF8F28" stroke-width="1.5" stroke-linecap="round" stroke-linejoin="round"/>
<path d="M23.3332 49V42.2022C23.3332 41.1925 23.0057 40.21 22.3998 39.4022L18.4846 34.1819C17.8258 33.3034 16.8182 32.7541 15.7229 32.6763C14.6276 32.5984 13.5524 32.9997 12.776 33.7762V33.7762C11.4431 35.1091 11.2931 37.2193 12.4241 38.7273L14.8787 42" stroke="#FF8F28" stroke-width="1.5" stroke-linecap="round" stroke-linejoin="round"/>
<path fill-rule="evenodd" clip-rule="evenodd" d="M31.6285 24.164C30.666 25.126 29.361 25.6665 28.0002 25.6667V25.6667C26.6393 25.6665 25.3343 25.126 24.3718 24.164L18.2235 18.0157C15.7035 15.4957 15.7035 11.41 18.2235 8.88999C20.7435 6.37 24.8292 6.37 27.3492 8.88999L28.0002 9.54099L28.6512 8.88999C31.1711 6.37 35.2568 6.37 37.7768 8.88999C40.2968 11.41 40.2968 15.4957 37.7768 18.0157L31.6285 24.164Z" stroke="#FF8F28" stroke-width="1.5" stroke-linecap="round" stroke-linejoin="round"/>
</svg>
