<svg width="25" height="24" viewBox="0 0 25 24" fill="none" xmlns="http://www.w3.org/2000/svg">
<path fill-rule="evenodd" clip-rule="evenodd" d="M18.7041 5.76205C17.0581 4.11505 14.8691 3.20705 12.5371 3.20605C7.73014 3.20605 3.81914 7.11505 3.81814 11.9201C3.81614 13.4491 4.21714 14.9521 4.98114 16.2771L3.74414 20.7931L8.36614 19.5811C9.64514 20.2771 11.0771 20.6421 12.5331 20.6421H12.5371C17.3421 20.6421 21.2531 16.7321 21.2551 11.9271C21.2561 9.59905 20.3501 7.41005 18.7041 5.76205Z" stroke="#0074D9" stroke-width="1.5" stroke-linecap="round" stroke-linejoin="round"/>
<path d="M13.5952 13.5599L14.0012 13.1569C14.3742 12.7869 14.9642 12.7399 15.3942 13.0419C15.8102 13.3339 16.1862 13.5959 16.5362 13.8399C17.0922 14.2259 17.1592 15.0179 16.6802 15.4959L16.3212 15.8549" stroke="#0074D9" stroke-width="1.5" stroke-linecap="round" stroke-linejoin="round"/>
<path d="M8.64502 8.1789L9.00402 7.8199C9.48202 7.3419 10.274 7.4089 10.66 7.9639C10.903 8.3139 11.165 8.6899 11.458 9.1059C11.76 9.5359 11.714 10.1259 11.343 10.4989L10.94 10.9049" stroke="#0074D9" stroke-width="1.5" stroke-linecap="round" stroke-linejoin="round"/>
<path d="M16.3212 15.8548C14.8402 17.3288 12.3512 16.0768 10.3862 14.1108" stroke="#0074D9" stroke-width="1.5" stroke-linecap="round" stroke-linejoin="round"/>
<path d="M10.3881 14.1137C8.42307 12.1477 7.17107 9.65971 8.64507 8.17871" stroke="#0074D9" stroke-width="1.5" stroke-linecap="round" stroke-linejoin="round"/>
<path d="M10.9399 10.9048C11.2589 11.4078 11.6679 11.9058 12.1299 12.3678L12.1319 12.3698C12.5939 12.8318 13.0919 13.2408 13.5949 13.5598" stroke="#0074D9" stroke-width="1.5" stroke-linecap="round" stroke-linejoin="round"/>
</svg>
